<svg width="28" height="28" viewBox="0 0 28 28" fill="none" xmlns="http://www.w3.org/2000/svg">
<path d="M14 14C12.1667 14 10.5972 13.3472 9.29166 12.0417C7.9861 10.7361 7.33332 9.16666 7.33332 7.33333C7.33332 5.5 7.9861 3.93055 9.29166 2.625C10.5972 1.31944 12.1667 0.666664 14 0.666664C15.8333 0.666664 17.4028 1.31944 18.7083 2.625C20.0139 3.93055 20.6667 5.5 20.6667 7.33333C20.6667 9.16666 20.0139 10.7361 18.7083 12.0417C17.4028 13.3472 15.8333 14 14 14ZM0.666656 27.3333V22.6667C0.666656 21.7222 0.90999 20.8539 1.39666 20.0617C1.88221 19.2706 2.52777 18.6667 3.33332 18.25C5.05555 17.3889 6.80555 16.7428 8.58332 16.3117C10.3611 15.8817 12.1667 15.6667 14 15.6667C15.8333 15.6667 17.6389 15.8817 19.4167 16.3117C21.1944 16.7428 22.9444 17.3889 24.6667 18.25C25.4722 18.6667 26.1178 19.2706 26.6033 20.0617C27.09 20.8539 27.3333 21.7222 27.3333 22.6667V27.3333H0.666656ZM3.99999 24H24V22.6667C24 22.3611 23.9239 22.0833 23.7717 21.8333C23.6183 21.5833 23.4167 21.3889 23.1667 21.25C21.6667 20.5 20.1528 19.9372 18.625 19.5617C17.0972 19.1872 15.5555 19 14 19C12.4444 19 10.9028 19.1872 9.37499 19.5617C7.84721 19.9372 6.33332 20.5 4.83332 21.25C4.58332 21.3889 4.38221 21.5833 4.22999 21.8333C4.07666 22.0833 3.99999 22.3611 3.99999 22.6667V24ZM14 10.6667C14.9167 10.6667 15.7017 10.34 16.355 9.68666C17.0072 9.03444 17.3333 8.25 17.3333 7.33333C17.3333 6.41666 17.0072 5.63222 16.355 4.98C15.7017 4.32666 14.9167 4 14 4C13.0833 4 12.2989 4.32666 11.6467 4.98C10.9933 5.63222 10.6667 6.41666 10.6667 7.33333C10.6667 8.25 10.9933 9.03444 11.6467 9.68666C12.2989 10.34 13.0833 10.6667 14 10.6667Z" fill="black"/>
</svg>
