<svg width="32" height="30" viewBox="0 0 32 30" fill="none" xmlns="http://www.w3.org/2000/svg">
<path d="M21.6667 17.5C22.3889 17.5 22.9861 17.2639 23.4583 16.7917C23.9306 16.3194 24.1667 15.7222 24.1667 15C24.1667 14.2778 23.9306 13.6806 23.4583 13.2083C22.9861 12.7361 22.3889 12.5 21.6667 12.5C20.9444 12.5 20.3472 12.7361 19.875 13.2083C19.4028 13.6806 19.1667 14.2778 19.1667 15C19.1667 15.7222 19.4028 16.3194 19.875 16.7917C20.3472 17.2639 20.9444 17.5 21.6667 17.5ZM3.33333 30C2.41667 30 1.63167 29.6739 0.978333 29.0217C0.326111 28.3683 0 27.5833 0 26.6667V3.33333C0 2.41667 0.326111 1.63167 0.978333 0.978333C1.63167 0.326111 2.41667 0 3.33333 0H26.6667C27.5833 0 28.3683 0.326111 29.0217 0.978333C29.6739 1.63167 30 2.41667 30 3.33333V7.5H26.6667V3.33333H3.33333V26.6667H26.6667V22.5H30V26.6667C30 27.5833 29.6739 28.3683 29.0217 29.0217C28.3683 29.6739 27.5833 30 26.6667 30H3.33333ZM16.6667 23.3333C15.75 23.3333 14.9656 23.0072 14.3133 22.355C13.66 21.7017 13.3333 20.9167 13.3333 20V10C13.3333 9.08333 13.66 8.29833 14.3133 7.645C14.9656 6.99278 15.75 6.66667 16.6667 6.66667H28.3333C29.25 6.66667 30.035 6.99278 30.6883 7.645C31.3406 8.29833 31.6667 9.08333 31.6667 10V20C31.6667 20.9167 31.3406 21.7017 30.6883 22.355C30.035 23.0072 29.25 23.3333 28.3333 23.3333H16.6667ZM28.3333 20V10H16.6667V20H28.3333Z" fill="#1C1B1F"/>
</svg>
