<svg width="41" height="41" viewBox="0 0 41 41" fill="none" xmlns="http://www.w3.org/2000/svg">
<mask id="mask0_84_13" style="mask-type:alpha" maskUnits="userSpaceOnUse" x="0" y="0" width="41" height="41">
<rect x="0.164642" y="0.495422" width="40" height="40" fill="#D9D9D9"/>
</mask>
<g mask="url(#mask0_84_13)">
<path d="M8.49798 35.4954C7.58131 35.4954 6.79631 35.1693 6.14298 34.5171C5.49075 33.8638 5.16464 33.0788 5.16464 32.1621V8.82876C5.16464 7.91209 5.49075 7.12709 6.14298 6.47376C6.79631 5.82153 7.58131 5.49542 8.49798 5.49542H20.1646V8.82876H8.49798V32.1621H20.1646V35.4954H8.49798ZM26.8313 28.8288L24.5396 26.4121L28.7896 22.1621H15.1646V18.8288H28.7896L24.5396 14.5788L26.8313 12.1621L35.1646 20.4954L26.8313 28.8288Z" fill="#1C1B1F"/>
</g>
</svg>
